  0
SECTION
  2
BLOCKS
  0
ENDSEC
  0
SECTION
  2
ENTITIES
  0
LINE
  8
0
 10
-5
 11
-5
 20
-30
 21
30
  0
LINE
  8
0
 10
-5
 11
5
 20
30
 21
30
  0
LINE
  8
0
 10
5
 11
5
 20
30
 21
-30
  0
LINE
  8
0
 10
5
 11
-5
 20
-30
 21
-30
  0
LINE
  8
0
 10
-3.526
 11
-3.526
 20
19.442
 21
20.559
  0
LINE
  8
0
 10
-3.526
 11
-3.181
 20
20.559
 21
21.62
  0
LINE
  8
0
 10
-3.181
 11
-2.806
 20
21.62
 21
22.137
  0
LINE
  8
0
 10
-2.806
 11
2.008
 20
22.137
 21
22.9
  0
LINE
  8
0
 10
2.008
 11
2.525
 20
22.9
 21
22.524
  0
LINE
  8
0
 10
2.525
 11
3.181
 20
22.524
 21
21.621
  0
LINE
  8
0
 10
3.181
 11
3.526
 20
21.621
 21
20.558
  0
LINE
  8
0
 10
3.526
 11
3.526
 20
20.558
 21
19.441
  0
LINE
  8
0
 10
3.526
 11
3.181
 20
19.441
 21
18.38
  0
LINE
  8
0
 10
3.181
 11
2.806
 20
18.38
 21
17.863
  0
LINE
  8
0
 10
2.806
 11
-2.008
 20
17.863
 21
17.1
  0
LINE
  8
0
 10
-2.008
 11
-2.525
 20
17.1
 21
17.476
  0
LINE
  8
0
 10
-2.525
 11
-3.181
 20
17.476
 21
18.379
  0
LINE
  8
0
 10
-3.181
 11
-3.526
 20
18.379
 21
19.442
  0
LINE
  8
0
 10
-3.492
 11
-3.15
 20
10.553
 21
11.605
  0
LINE
  8
0
 10
-3.15
 11
-2.778
 20
11.605
 21
12.116
  0
LINE
  8
0
 10
-2.778
 11
1.988
 20
12.116
 21
12.871
  0
LINE
  8
0
 10
1.988
 11
2.5
 20
12.871
 21
12.499
  0
LINE
  8
0
 10
2.5
 11
3.15
 20
12.499
 21
11.605
  0
LINE
  8
0
 10
3.15
 11
3.491
 20
11.605
 21
10.553
  0
LINE
  8
0
 10
3.491
 11
3.492
 20
10.553
 21
9.447
  0
LINE
  8
0
 10
3.492
 11
3.15
 20
9.447
 21
8.395
  0
LINE
  8
0
 10
3.15
 11
2.778
 20
8.395
 21
7.884
  0
LINE
  8
0
 10
2.778
 11
-1.988
 20
7.884
 21
7.129
  0
LINE
  8
0
 10
-1.988
 11
-2.5
 20
7.129
 21
7.501
  0
LINE
  8
0
 10
-2.5
 11
-3.15
 20
7.501
 21
8.395
  0
LINE
  8
0
 10
-3.15
 11
-3.491
 20
8.395
 21
9.447
  0
LINE
  8
0
 10
-3.491
 11
-3.492
 20
9.447
 21
10.553
  0
LINE
  8
0
 10
-3.457
 11
-3.457
 20
-0.548
 21
0.548
  0
LINE
  8
0
 10
-3.457
 11
-3.119
 20
0.548
 21
1.589
  0
LINE
  8
0
 10
-3.119
 11
-2.751
 20
1.589
 21
2.095
  0
LINE
  8
0
 10
-2.751
 11
1.969
 20
2.095
 21
2.843
  0
LINE
  8
0
 10
1.969
 11
2.475
 20
2.843
 21
2.475
  0
LINE
  8
0
 10
2.475
 11
3.119
 20
2.475
 21
1.589
  0
LINE
  8
0
 10
3.119
 11
3.457
 20
1.589
 21
0.548
  0
LINE
  8
0
 10
3.457
 11
3.457
 20
0.548
 21
-0.548
  0
LINE
  8
0
 10
3.457
 11
3.119
 20
-0.548
 21
-1.589
  0
LINE
  8
0
 10
3.119
 11
2.751
 20
-1.589
 21
-2.095
  0
LINE
  8
0
 10
2.751
 11
-1.969
 20
-2.095
 21
-2.843
  0
LINE
  8
0
 10
-1.969
 11
-2.475
 20
-2.843
 21
-2.475
  0
LINE
  8
0
 10
-2.475
 11
-3.119
 20
-2.475
 21
-1.589
  0
LINE
  8
0
 10
-3.119
 11
-3.457
 20
-1.589
 21
-0.548
  0
LINE
  8
0
 10
-3.423
 11
-3.088
 20
-9.458
 21
-8.427
  0
LINE
  8
0
 10
-3.088
 11
-2.723
 20
-8.427
 21
-7.925
  0
LINE
  8
0
 10
-2.723
 11
1.949
 20
-7.925
 21
-7.185
  0
LINE
  8
0
 10
1.949
 11
2.451
 20
-7.185
 21
-7.55
  0
LINE
  8
0
 10
2.451
 11
3.088
 20
-7.55
 21
-8.426
  0
LINE
  8
0
 10
3.088
 11
3.422
 20
-8.426
 21
-9.458
  0
LINE
  8
0
 10
3.422
 11
3.423
 20
-9.458
 21
-10.542
  0
LINE
  8
0
 10
3.423
 11
3.088
 20
-10.542
 21
-11.573
  0
LINE
  8
0
 10
3.088
 11
2.723
 20
-11.573
 21
-12.075
  0
LINE
  8
0
 10
2.723
 11
-1.949
 20
-12.075
 21
-12.815
  0
LINE
  8
0
 10
-1.949
 11
-2.451
 20
-12.815
 21
-12.45
  0
LINE
  8
0
 10
-2.451
 11
-3.088
 20
-12.45
 21
-11.574
  0
LINE
  8
0
 10
-3.088
 11
-3.422
 20
-11.574
 21
-10.542
  0
LINE
  8
0
 10
-3.422
 11
-3.423
 20
-10.542
 21
-9.458
  0
LINE
  8
0
 10
-3.388
 11
-3.388
 20
-20.537
 21
-19.463
  0
LINE
  8
0
 10
-3.388
 11
-3.057
 20
-19.463
 21
-18.443
  0
LINE
  8
0
 10
-3.057
 11
-2.696
 20
-18.443
 21
-17.946
  0
LINE
  8
0
 10
-2.696
 11
1.929
 20
-17.946
 21
-17.214
  0
LINE
  8
0
 10
1.929
 11
2.426
 20
-17.214
 21
-17.575
  0
LINE
  8
0
 10
2.426
 11
3.056
 20
-17.575
 21
-18.442
  0
LINE
  8
0
 10
3.056
 11
3.388
 20
-18.442
 21
-19.463
  0
LINE
  8
0
 10
3.388
 11
3.388
 20
-19.463
 21
-20.537
  0
LINE
  8
0
 10
3.388
 11
3.057
 20
-20.537
 21
-21.557
  0
LINE
  8
0
 10
3.057
 11
2.696
 20
-21.557
 21
-22.054
  0
LINE
  8
0
 10
2.696
 11
-1.929
 20
-22.054
 21
-22.786
  0
LINE
  8
0
 10
-1.929
 11
-2.426
 20
-22.786
 21
-22.425
  0
LINE
  8
0
 10
-2.426
 11
-3.056
 20
-22.425
 21
-21.558
  0
LINE
  8
0
 10
-3.056
 11
-3.388
 20
-21.558
 21
-20.537
  0
ENDSEC
  0
SECTION
  2
OBJECTS
  0
DICTIONARY
  0
ENDSEC
  0
EOF
