  0
SECTION
  2
BLOCKS
  0
ENDSEC
  0
SECTION
  2
ENTITIES
  0
LINE
  8
0
 10
-5
 11
-5
 20
-130
 21
10
  0
LINE
  8
0
 10
-5
 11
5
 20
10
 21
10
  0
LINE
  8
0
 10
5
 11
5
 20
10
 21
-130
  0
LINE
  8
0
 10
5
 11
-5
 20
-130
 21
-130
  0
LINE
  8
0
 10
-3.457
 11
-3.457
 20
-0.548
 21
0.548
  0
LINE
  8
0
 10
-3.457
 11
-3.119
 20
0.548
 21
1.589
  0
LINE
  8
0
 10
-3.119
 11
-2.751
 20
1.589
 21
2.095
  0
LINE
  8
0
 10
-2.751
 11
1.969
 20
2.095
 21
2.843
  0
LINE
  8
0
 10
1.969
 11
2.475
 20
2.843
 21
2.475
  0
LINE
  8
0
 10
2.475
 11
3.119
 20
2.475
 21
1.589
  0
LINE
  8
0
 10
3.119
 11
3.457
 20
1.589
 21
0.548
  0
LINE
  8
0
 10
3.457
 11
3.457
 20
0.548
 21
-0.548
  0
LINE
  8
0
 10
3.457
 11
3.119
 20
-0.548
 21
-1.589
  0
LINE
  8
0
 10
3.119
 11
2.751
 20
-1.589
 21
-2.095
  0
LINE
  8
0
 10
2.751
 11
-1.969
 20
-2.095
 21
-2.843
  0
LINE
  8
0
 10
-1.969
 11
-2.475
 20
-2.843
 21
-2.475
  0
LINE
  8
0
 10
-2.475
 11
-3.119
 20
-2.475
 21
-1.589
  0
LINE
  8
0
 10
-3.119
 11
-3.457
 20
-1.589
 21
-0.548
  0
LINE
  8
0
 10
-3.423
 11
-3.088
 20
-9.458
 21
-8.427
  0
LINE
  8
0
 10
-3.088
 11
-2.723
 20
-8.427
 21
-7.925
  0
LINE
  8
0
 10
-2.723
 11
1.949
 20
-7.925
 21
-7.185
  0
LINE
  8
0
 10
1.949
 11
2.451
 20
-7.185
 21
-7.55
  0
LINE
  8
0
 10
2.451
 11
3.088
 20
-7.55
 21
-8.426
  0
LINE
  8
0
 10
3.088
 11
3.422
 20
-8.426
 21
-9.458
  0
LINE
  8
0
 10
3.422
 11
3.423
 20
-9.458
 21
-10.542
  0
LINE
  8
0
 10
3.423
 11
3.088
 20
-10.542
 21
-11.573
  0
LINE
  8
0
 10
3.088
 11
2.723
 20
-11.573
 21
-12.075
  0
LINE
  8
0
 10
2.723
 11
-1.949
 20
-12.075
 21
-12.815
  0
LINE
  8
0
 10
-1.949
 11
-2.451
 20
-12.815
 21
-12.45
  0
LINE
  8
0
 10
-2.451
 11
-3.088
 20
-12.45
 21
-11.574
  0
LINE
  8
0
 10
-3.088
 11
-3.422
 20
-11.574
 21
-10.542
  0
LINE
  8
0
 10
-3.422
 11
-3.423
 20
-10.542
 21
-9.458
  0
LINE
  8
0
 10
-3.388
 11
-3.388
 20
-20.537
 21
-19.463
  0
LINE
  8
0
 10
-3.388
 11
-3.057
 20
-19.463
 21
-18.443
  0
LINE
  8
0
 10
-3.057
 11
-2.696
 20
-18.443
 21
-17.946
  0
LINE
  8
0
 10
-2.696
 11
1.929
 20
-17.946
 21
-17.214
  0
LINE
  8
0
 10
1.929
 11
2.426
 20
-17.214
 21
-17.575
  0
LINE
  8
0
 10
2.426
 11
3.056
 20
-17.575
 21
-18.442
  0
LINE
  8
0
 10
3.056
 11
3.388
 20
-18.442
 21
-19.463
  0
LINE
  8
0
 10
3.388
 11
3.388
 20
-19.463
 21
-20.537
  0
LINE
  8
0
 10
3.388
 11
3.057
 20
-20.537
 21
-21.557
  0
LINE
  8
0
 10
3.057
 11
2.696
 20
-21.557
 21
-22.054
  0
LINE
  8
0
 10
2.696
 11
-1.929
 20
-22.054
 21
-22.786
  0
LINE
  8
0
 10
-1.929
 11
-2.426
 20
-22.786
 21
-22.425
  0
LINE
  8
0
 10
-2.426
 11
-3.056
 20
-22.425
 21
-21.558
  0
LINE
  8
0
 10
-3.056
 11
-3.388
 20
-21.558
 21
-20.537
  0
LINE
  8
0
 10
-3.354
 11
-3.025
 20
-29.469
 21
-28.459
  0
LINE
  8
0
 10
-3.025
 11
-2.668
 20
-28.459
 21
-27.967
  0
LINE
  8
0
 10
-2.668
 11
1.909
 20
-27.967
 21
-27.242
  0
LINE
  8
0
 10
1.909
 11
2.401
 20
-27.242
 21
-27.6
  0
LINE
  8
0
 10
2.401
 11
3.025
 20
-27.6
 21
-28.458
  0
LINE
  8
0
 10
3.025
 11
3.353
 20
-28.458
 21
-29.469
  0
LINE
  8
0
 10
3.353
 11
3.354
 20
-29.469
 21
-30.531
  0
LINE
  8
0
 10
3.354
 11
3.025
 20
-30.531
 21
-31.541
  0
LINE
  8
0
 10
3.025
 11
2.668
 20
-31.541
 21
-32.033
  0
LINE
  8
0
 10
2.668
 11
-1.909
 20
-32.033
 21
-32.758
  0
LINE
  8
0
 10
-1.909
 11
-2.401
 20
-32.758
 21
-32.4
  0
LINE
  8
0
 10
-2.401
 11
-3.025
 20
-32.4
 21
-31.542
  0
LINE
  8
0
 10
-3.025
 11
-3.353
 20
-31.542
 21
-30.531
  0
LINE
  8
0
 10
-3.353
 11
-3.354
 20
-30.531
 21
-29.469
  0
LINE
  8
0
 10
-3.319
 11
-3.319
 20
-40.526
 21
-39.474
  0
LINE
  8
0
 10
-3.319
 11
-2.994
 20
-39.474
 21
-38.475
  0
LINE
  8
0
 10
-2.994
 11
-2.641
 20
-38.475
 21
-37.988
  0
LINE
  8
0
 10
-2.641
 11
1.89
 20
-37.988
 21
-37.271
  0
LINE
  8
0
 10
1.89
 11
2.376
 20
-37.271
 21
-37.624
  0
LINE
  8
0
 10
2.376
 11
2.994
 20
-37.624
 21
-38.474
  0
LINE
  8
0
 10
2.994
 11
3.319
 20
-38.474
 21
-39.474
  0
LINE
  8
0
 10
3.319
 11
3.319
 20
-39.474
 21
-40.526
  0
LINE
  8
0
 10
3.319
 11
2.994
 20
-40.526
 21
-41.525
  0
LINE
  8
0
 10
2.994
 11
2.641
 20
-41.525
 21
-42.012
  0
LINE
  8
0
 10
2.641
 11
-1.89
 20
-42.012
 21
-42.729
  0
LINE
  8
0
 10
-1.89
 11
-2.376
 20
-42.729
 21
-42.376
  0
LINE
  8
0
 10
-2.376
 11
-2.994
 20
-42.376
 21
-41.526
  0
LINE
  8
0
 10
-2.994
 11
-3.319
 20
-41.526
 21
-40.526
  0
LINE
  8
0
 10
-3.284
 11
-3.284
 20
-50.52
 21
-49.479
  0
LINE
  8
0
 10
-3.284
 11
-2.963
 20
-49.479
 21
-48.491
  0
LINE
  8
0
 10
-2.963
 11
-2.613
 20
-48.491
 21
-48.009
  0
LINE
  8
0
 10
-2.613
 11
1.87
 20
-48.009
 21
-47.299
  0
LINE
  8
0
 10
1.87
 11
2.352
 20
-47.299
 21
-47.649
  0
LINE
  8
0
 10
2.352
 11
2.963
 20
-47.649
 21
-48.49
  0
LINE
  8
0
 10
2.963
 11
3.284
 20
-48.49
 21
-49.48
  0
LINE
  8
0
 10
3.284
 11
3.284
 20
-49.48
 21
-50.521
  0
LINE
  8
0
 10
3.284
 11
2.963
 20
-50.521
 21
-51.509
  0
LINE
  8
0
 10
2.963
 11
2.613
 20
-51.509
 21
-51.991
  0
LINE
  8
0
 10
2.613
 11
-1.87
 20
-51.991
 21
-52.701
  0
LINE
  8
0
 10
-1.87
 11
-2.352
 20
-52.701
 21
-52.351
  0
LINE
  8
0
 10
-2.352
 11
-2.963
 20
-52.351
 21
-51.51
  0
LINE
  8
0
 10
-2.963
 11
-3.284
 20
-51.51
 21
-50.52
  0
LINE
  8
0
 10
-3.25
 11
-2.932
 20
-59.485
 21
-58.507
  0
LINE
  8
0
 10
-2.932
 11
-2.586
 20
-58.507
 21
-58.03
  0
LINE
  8
0
 10
-2.586
 11
1.85
 20
-58.03
 21
-57.328
  0
LINE
  8
0
 10
1.85
 11
2.327
 20
-57.328
 21
-57.674
  0
LINE
  8
0
 10
2.327
 11
2.932
 20
-57.674
 21
-58.506
  0
LINE
  8
0
 10
2.932
 11
3.249
 20
-58.506
 21
-59.485
  0
LINE
  8
0
 10
3.249
 11
3.25
 20
-59.485
 21
-60.515
  0
LINE
  8
0
 10
3.25
 11
2.932
 20
-60.515
 21
-61.493
  0
LINE
  8
0
 10
2.932
 11
2.586
 20
-61.493
 21
-61.97
  0
LINE
  8
0
 10
2.586
 11
-1.85
 20
-61.97
 21
-62.672
  0
LINE
  8
0
 10
-1.85
 11
-2.327
 20
-62.672
 21
-62.326
  0
LINE
  8
0
 10
-2.327
 11
-2.932
 20
-62.326
 21
-61.494
  0
LINE
  8
0
 10
-2.932
 11
-3.249
 20
-61.494
 21
-60.515
  0
LINE
  8
0
 10
-3.249
 11
-3.25
 20
-60.515
 21
-59.485
  0
LINE
  8
0
 10
-3.215
 11
-3.215
 20
-70.509
 21
-69.49
  0
LINE
  8
0
 10
-3.215
 11
-2.901
 20
-69.49
 21
-68.523
  0
LINE
  8
0
 10
-2.901
 11
-2.558
 20
-68.523
 21
-68.051
  0
LINE
  8
0
 10
-2.558
 11
1.831
 20
-68.051
 21
-67.356
  0
LINE
  8
0
 10
1.831
 11
2.302
 20
-67.356
 21
-67.699
  0
LINE
  8
0
 10
2.302
 11
2.9
 20
-67.699
 21
-68.522
  0
LINE
  8
0
 10
2.9
 11
3.215
 20
-68.522
 21
-69.491
  0
LINE
  8
0
 10
3.215
 11
3.215
 20
-69.491
 21
-70.51
  0
LINE
  8
0
 10
3.215
 11
2.901
 20
-70.51
 21
-71.477
  0
LINE
  8
0
 10
2.901
 11
2.558
 20
-71.477
 21
-71.949
  0
LINE
  8
0
 10
2.558
 11
-1.831
 20
-71.949
 21
-72.644
  0
LINE
  8
0
 10
-1.831
 11
-2.302
 20
-72.644
 21
-72.301
  0
LINE
  8
0
 10
-2.302
 11
-2.9
 20
-72.301
 21
-71.478
  0
LINE
  8
0
 10
-2.9
 11
-3.215
 20
-71.478
 21
-70.509
  0
LINE
  8
0
 10
-3.181
 11
-2.869
 20
-79.496
 21
-78.538
  0
LINE
  8
0
 10
-2.869
 11
-2.531
 20
-78.538
 21
-78.072
  0
LINE
  8
0
 10
-2.531
 11
1.811
 20
-78.072
 21
-77.384
  0
LINE
  8
0
 10
1.811
 11
2.277
 20
-77.384
 21
-77.723
  0
LINE
  8
0
 10
2.277
 11
2.869
 20
-77.723
 21
-78.538
  0
LINE
  8
0
 10
2.869
 11
3.18
 20
-78.538
 21
-79.496
  0
LINE
  8
0
 10
3.18
 11
3.181
 20
-79.496
 21
-80.504
  0
LINE
  8
0
 10
3.181
 11
2.869
 20
-80.504
 21
-81.462
  0
LINE
  8
0
 10
2.869
 11
2.531
 20
-81.462
 21
-81.928
  0
LINE
  8
0
 10
2.531
 11
-1.811
 20
-81.928
 21
-82.616
  0
LINE
  8
0
 10
-1.811
 11
-2.277
 20
-82.616
 21
-82.277
  0
LINE
  8
0
 10
-2.277
 11
-2.869
 20
-82.277
 21
-81.462
  0
LINE
  8
0
 10
-2.869
 11
-3.18
 20
-81.462
 21
-80.504
  0
LINE
  8
0
 10
-3.18
 11
-3.181
 20
-80.504
 21
-79.496
  0
LINE
  8
0
 10
-3.146
 11
-3.146
 20
-90.498
 21
-89.501
  0
LINE
  8
0
 10
-3.146
 11
-2.838
 20
-89.501
 21
-88.554
  0
LINE
  8
0
 10
-2.838
 11
-2.503
 20
-88.554
 21
-88.093
  0
LINE
  8
0
 10
-2.503
 11
1.791
 20
-88.093
 21
-87.413
  0
LINE
  8
0
 10
1.791
 11
2.253
 20
-87.413
 21
-87.748
  0
LINE
  8
0
 10
2.253
 11
2.838
 20
-87.748
 21
-88.554
  0
LINE
  8
0
 10
2.838
 11
3.146
 20
-88.554
 21
-89.502
  0
LINE
  8
0
 10
3.146
 11
3.146
 20
-89.502
 21
-90.499
  0
LINE
  8
0
 10
3.146
 11
2.838
 20
-90.499
 21
-91.446
  0
LINE
  8
0
 10
2.838
 11
2.503
 20
-91.446
 21
-91.907
  0
LINE
  8
0
 10
2.503
 11
-1.791
 20
-91.907
 21
-92.587
  0
LINE
  8
0
 10
-1.791
 11
-2.253
 20
-92.587
 21
-92.252
  0
LINE
  8
0
 10
-2.253
 11
-2.838
 20
-92.252
 21
-91.446
  0
LINE
  8
0
 10
-2.838
 11
-3.146
 20
-91.446
 21
-90.498
  0
LINE
  8
0
 10
-3.112
 11
-2.807
 20
-99.507
 21
-98.57
  0
LINE
  8
0
 10
-2.807
 11
-2.476
 20
-98.57
 21
-98.114
  0
LINE
  8
0
 10
-2.476
 11
1.772
 20
-98.114
 21
-97.441
  0
LINE
  8
0
 10
1.772
 11
2.228
 20
-97.441
 21
-97.773
  0
LINE
  8
0
 10
2.228
 11
2.807
 20
-97.773
 21
-98.569
  0
LINE
  8
0
 10
2.807
 11
3.111
 20
-98.569
 21
-99.507
  0
LINE
  8
0
 10
3.111
 11
3.112
 20
-99.507
 21
-100.493
  0
LINE
  8
0
 10
3.112
 11
2.807
 20
-100.493
 21
-101.43
  0
LINE
  8
0
 10
2.807
 11
2.476
 20
-101.43
 21
-101.886
  0
LINE
  8
0
 10
2.476
 11
-1.772
 20
-101.886
 21
-102.559
  0
LINE
  8
0
 10
-1.772
 11
-2.228
 20
-102.559
 21
-102.227
  0
LINE
  8
0
 10
-2.228
 11
-2.807
 20
-102.227
 21
-101.431
  0
LINE
  8
0
 10
-2.807
 11
-3.111
 20
-101.431
 21
-100.493
  0
LINE
  8
0
 10
-3.111
 11
-3.112
 20
-100.493
 21
-99.507
  0
LINE
  8
0
 10
-3.077
 11
-3.077
 20
-110.487
 21
-109.512
  0
LINE
  8
0
 10
-3.077
 11
-2.776
 20
-109.512
 21
-108.586
  0
LINE
  8
0
 10
-2.776
 11
-2.448
 20
-108.586
 21
-108.135
  0
LINE
  8
0
 10
-2.448
 11
1.752
 20
-108.135
 21
-107.47
  0
LINE
  8
0
 10
1.752
 11
2.203
 20
-107.47
 21
-107.798
  0
LINE
  8
0
 10
2.203
 11
2.776
 20
-107.798
 21
-108.585
  0
LINE
  8
0
 10
2.776
 11
3.077
 20
-108.585
 21
-109.513
  0
LINE
  8
0
 10
3.077
 11
3.077
 20
-109.513
 21
-110.488
  0
LINE
  8
0
 10
3.077
 11
2.776
 20
-110.488
 21
-111.414
  0
LINE
  8
0
 10
2.776
 11
2.448
 20
-111.414
 21
-111.865
  0
LINE
  8
0
 10
2.448
 11
-1.752
 20
-111.865
 21
-112.53
  0
LINE
  8
0
 10
-1.752
 11
-2.203
 20
-112.53
 21
-112.202
  0
LINE
  8
0
 10
-2.203
 11
-2.776
 20
-112.202
 21
-111.415
  0
LINE
  8
0
 10
-2.776
 11
-3.077
 20
-111.415
 21
-110.487
  0
LINE
  8
0
 10
-3.042
 11
-3.042
 20
-120.482
 21
-119.518
  0
LINE
  8
0
 10
-3.042
 11
-2.745
 20
-119.518
 21
-118.602
  0
LINE
  8
0
 10
-2.745
 11
-2.421
 20
-118.602
 21
-118.156
  0
LINE
  8
0
 10
-2.421
 11
1.732
 20
-118.156
 21
-117.498
  0
LINE
  8
0
 10
1.732
 11
2.178
 20
-117.498
 21
-117.822
  0
LINE
  8
0
 10
2.178
 11
2.745
 20
-117.822
 21
-118.601
  0
LINE
  8
0
 10
2.745
 11
3.042
 20
-118.601
 21
-119.518
  0
LINE
  8
0
 10
3.042
 11
3.042
 20
-119.518
 21
-120.482
  0
LINE
  8
0
 10
3.042
 11
2.745
 20
-120.482
 21
-121.398
  0
LINE
  8
0
 10
2.745
 11
2.421
 20
-121.398
 21
-121.844
  0
LINE
  8
0
 10
2.421
 11
-1.732
 20
-121.844
 21
-122.502
  0
LINE
  8
0
 10
-1.732
 11
-2.178
 20
-122.502
 21
-122.178
  0
LINE
  8
0
 10
-2.178
 11
-2.745
 20
-122.178
 21
-121.399
  0
LINE
  8
0
 10
-2.745
 11
-3.042
 20
-121.399
 21
-120.482
  0
ENDSEC
  0
SECTION
  2
OBJECTS
  0
DICTIONARY
  0
ENDSEC
  0
EOF
