  0
SECTION
  2
BLOCKS
  0
ENDSEC
  0
SECTION
  2
ENTITIES
  0
LINE
  8
0
 10
-3.359
 11
-3.03
 20
0.516
 21
1.497
  0
LINE
  8
0
 10
-3.03
 11
-2.862
 20
1.497
 21
1.721
  0
LINE
  8
0
 10
-2.862
 11
2.173
 20
1.721
 21
2.495
  0
LINE
  8
0
 10
2.173
 11
2.405
 20
2.495
 21
2.332
  0
LINE
  8
0
 10
2.405
 11
3.03
 20
2.332
 21
1.498
  0
LINE
  8
0
 10
3.03
 11
3.358
 20
1.498
 21
0.516
  0
LINE
  8
0
 10
3.358
 11
3.359
 20
0.516
 21
-0.516
  0
LINE
  8
0
 10
3.359
 11
3.03
 20
-0.516
 21
-1.497
  0
LINE
  8
0
 10
3.03
 11
2.612
 20
-1.497
 21
-2.054
  0
LINE
  8
0
 10
2.612
 11
-1.83
 20
-2.054
 21
-2.736
  0
LINE
  8
0
 10
-1.83
 11
-2.405
 20
-2.736
 21
-2.332
  0
LINE
  8
0
 10
-2.405
 11
-3.03
 20
-2.332
 21
-1.498
  0
LINE
  8
0
 10
-3.03
 11
-3.358
 20
-1.498
 21
-0.516
  0
LINE
  8
0
 10
-3.358
 11
-3.359
 20
-0.516
 21
0.516
  0
LINE
  8
0
 10
-15.359
 11
-15.359
 20
-0.189
 21
0.189
  0
LINE
  8
0
 10
-15.359
 11
-13.911
 20
0.189
 21
1.313
  0
LINE
  8
0
 10
-13.911
 11
-12.639
 20
1.313
 21
1.957
  0
LINE
  8
0
 10
-12.639
 11
-11.66
 20
1.957
 21
2.238
  0
LINE
  8
0
 10
-11.66
 11
-11.052
 20
2.238
 21
2.294
  0
LINE
  8
0
 10
-11.052
 11
-10.849
 20
2.294
 21
2.277
  0
LINE
  8
0
 10
-10.849
 11
-10.267
 20
2.277
 21
2.155
  0
LINE
  8
0
 10
-10.267
 11
-10.25
 20
2.155
 21
2.138
  0
LINE
  8
0
 10
-10.25
 11
-9.917
 20
2.138
 21
1.968
  0
LINE
  8
0
 10
-9.917
 11
-9.549
 20
1.968
 21
1.91
  0
LINE
  8
0
 10
-9.549
 11
-9.18
 20
1.91
 21
1.968
  0
LINE
  8
0
 10
-9.18
 11
-8.848
 20
1.968
 21
2.138
  0
LINE
  8
0
 10
-8.848
 11
-8.584
 20
2.138
 21
2.402
  0
LINE
  8
0
 10
-8.584
 11
-8.414
 20
2.402
 21
2.734
  0
LINE
  8
0
 10
-8.414
 11
-8.356
 20
2.734
 21
3.103
  0
LINE
  8
0
 10
-8.356
 11
-8.414
 20
3.103
 21
3.471
  0
LINE
  8
0
 10
-8.414
 11
-8.584
 20
3.471
 21
3.804
  0
LINE
  8
0
 10
-8.584
 11
-8.848
 20
3.804
 21
4.067
  0
LINE
  8
0
 10
-8.848
 11
-9.18
 20
4.067
 21
4.237
  0
LINE
  8
0
 10
-9.18
 11
-9.549
 20
4.237
 21
4.295
  0
LINE
  8
0
 10
-9.549
 11
-9.571
 20
4.295
 21
4.292
  0
LINE
  8
0
 10
-9.571
 11
-10.115
 20
4.292
 21
4.535
  0
LINE
  8
0
 10
-10.115
 11
-10.29
 20
4.535
 21
4.64
  0
LINE
  8
0
 10
-10.29
 11
-10.749
 20
4.64
 21
5.043
  0
LINE
  8
0
 10
-10.749
 11
-11.375
 20
5.043
 21
5.846
  0
LINE
  8
0
 10
-11.375
 11
-12.026
 20
5.846
 21
7.114
  0
LINE
  8
0
 10
-12.026
 11
-12.537
 20
7.114
 21
8.875
  0
LINE
  8
0
 10
-12.537
 11
-12.315
 20
8.875
 21
9.181
  0
LINE
  8
0
 10
-12.315
 11
-10.482
 20
9.181
 21
9.239
  0
LINE
  8
0
 10
-10.482
 11
-9.075
 20
9.239
 21
9.012
  0
LINE
  8
0
 10
-9.075
 11
-8.118
 20
9.012
 21
8.664
  0
LINE
  8
0
 10
-8.118
 11
-7.593
 20
8.664
 21
8.352
  0
LINE
  8
0
 10
-7.593
 11
-7.439
 20
8.352
 21
8.219
  0
LINE
  8
0
 10
-7.439
 11
-7.039
 20
8.219
 21
7.777
  0
LINE
  8
0
 10
-7.039
 11
-7.036
 20
7.777
 21
7.754
  0
LINE
  8
0
 10
-7.036
 11
-6.866
 20
7.754
 21
7.422
  0
LINE
  8
0
 10
-6.866
 11
-6.602
 20
7.422
 21
7.158
  0
LINE
  8
0
 10
-6.602
 11
-6.27
 20
7.158
 21
6.988
  0
LINE
  8
0
 10
-6.27
 11
-5.901
 20
6.988
 21
6.93
  0
LINE
  8
0
 10
-5.901
 11
-5.533
 20
6.93
 21
6.988
  0
LINE
  8
0
 10
-5.533
 11
-5.2
 20
6.988
 21
7.158
  0
LINE
  8
0
 10
-5.2
 11
-4.937
 20
7.158
 21
7.422
  0
LINE
  8
0
 10
-4.937
 11
-4.767
 20
7.422
 21
7.754
  0
LINE
  8
0
 10
-4.767
 11
-4.709
 20
7.754
 21
8.123
  0
LINE
  8
0
 10
-4.709
 11
-4.767
 20
8.123
 21
8.491
  0
LINE
  8
0
 10
-4.767
 11
-4.937
 20
8.491
 21
8.824
  0
LINE
  8
0
 10
-4.937
 11
-5.2
 20
8.824
 21
9.087
  0
LINE
  8
0
 10
-5.2
 11
-5.222
 20
9.087
 21
9.098
  0
LINE
  8
0
 10
-5.222
 11
-5.518
 20
9.098
 21
9.614
  0
LINE
  8
0
 10
-5.518
 11
-5.597
 20
9.614
 21
9.802
  0
LINE
  8
0
 10
-5.597
 11
-5.732
 20
9.802
 21
10.398
  0
LINE
  8
0
 10
-5.732
 11
-5.767
 20
10.398
 21
11.416
  0
LINE
  8
0
 10
-5.767
 11
-5.547
 20
11.416
 21
12.824
  0
LINE
  8
0
 10
-5.547
 11
-4.926
 20
12.824
 21
14.549
  0
LINE
  8
0
 10
-4.926
 11
-4.566
 20
14.549
 21
14.666
  0
LINE
  8
0
 10
-4.566
 11
-3.05
 20
14.666
 21
13.636
  0
LINE
  8
0
 10
-3.05
 11
-2.044
 20
13.636
 21
12.625
  0
LINE
  8
0
 10
-2.044
 11
-1.475
 20
12.625
 21
11.781
  0
LINE
  8
0
 10
-1.475
 11
-1.234
 20
11.781
 21
11.22
  0
LINE
  8
0
 10
-1.234
 11
-1.187
 20
11.22
 21
11.022
  0
LINE
  8
0
 10
-1.187
 11
-1.123
 20
11.022
 21
10.43
  0
LINE
  8
0
 10
-1.123
 11
-1.134
 20
10.43
 21
10.409
  0
LINE
  8
0
 10
-1.134
 11
-1.193
 20
10.409
 21
10.04
  0
LINE
  8
0
 10
-1.193
 11
-1.134
 20
10.04
 21
9.671
  0
LINE
  8
0
 10
-1.134
 11
-0.965
 20
9.671
 21
9.339
  0
LINE
  8
0
 10
-0.965
 11
-0.701
 20
9.339
 21
9.075
  0
LINE
  8
0
 10
-0.701
 11
-0.369
 20
9.075
 21
8.906
  0
LINE
  8
0
 10
-0.369
 11
0
 20
8.906
 21
8.847
  0
LINE
  8
0
 10
0
 11
0.369
 20
8.847
 21
8.906
  0
LINE
  8
0
 10
0.369
 11
0.701
 20
8.906
 21
9.075
  0
LINE
  8
0
 10
0.701
 11
0.965
 20
9.075
 21
9.339
  0
LINE
  8
0
 10
0.965
 11
1.134
 20
9.339
 21
9.671
  0
LINE
  8
0
 10
1.134
 11
1.193
 20
9.671
 21
10.04
  0
LINE
  8
0
 10
1.193
 11
1.134
 20
10.04
 21
10.409
  0
LINE
  8
0
 10
1.134
 11
1.123
 20
10.409
 21
10.43
  0
LINE
  8
0
 10
1.123
 11
1.187
 20
10.43
 21
11.022
  0
LINE
  8
0
 10
1.187
 11
1.234
 20
11.022
 21
11.22
  0
LINE
  8
0
 10
1.234
 11
1.475
 20
11.22
 21
11.781
  0
LINE
  8
0
 10
1.475
 11
2.044
 20
11.781
 21
12.625
  0
LINE
  8
0
 10
2.044
 11
3.05
 20
12.625
 21
13.636
  0
LINE
  8
0
 10
3.05
 11
4.566
 20
13.636
 21
14.666
  0
LINE
  8
0
 10
4.566
 11
4.926
 20
14.666
 21
14.549
  0
LINE
  8
0
 10
4.926
 11
5.547
 20
14.549
 21
12.824
  0
LINE
  8
0
 10
5.547
 11
5.767
 20
12.824
 21
11.416
  0
LINE
  8
0
 10
5.767
 11
5.732
 20
11.416
 21
10.398
  0
LINE
  8
0
 10
5.732
 11
5.597
 20
10.398
 21
9.802
  0
LINE
  8
0
 10
5.597
 11
5.518
 20
9.802
 21
9.614
  0
LINE
  8
0
 10
5.518
 11
5.222
 20
9.614
 21
9.098
  0
LINE
  8
0
 10
5.222
 11
5.2
 20
9.098
 21
9.087
  0
LINE
  8
0
 10
5.2
 11
4.937
 20
9.087
 21
8.824
  0
LINE
  8
0
 10
4.937
 11
4.767
 20
8.824
 21
8.491
  0
LINE
  8
0
 10
4.767
 11
4.709
 20
8.491
 21
8.123
  0
LINE
  8
0
 10
4.709
 11
4.767
 20
8.123
 21
7.754
  0
LINE
  8
0
 10
4.767
 11
4.937
 20
7.754
 21
7.422
  0
LINE
  8
0
 10
4.937
 11
5.2
 20
7.422
 21
7.158
  0
LINE
  8
0
 10
5.2
 11
5.533
 20
7.158
 21
6.988
  0
LINE
  8
0
 10
5.533
 11
5.901
 20
6.988
 21
6.93
  0
LINE
  8
0
 10
5.901
 11
6.27
 20
6.93
 21
6.988
  0
LINE
  8
0
 10
6.27
 11
6.602
 20
6.988
 21
7.158
  0
LINE
  8
0
 10
6.602
 11
6.866
 20
7.158
 21
7.422
  0
LINE
  8
0
 10
6.866
 11
7.036
 20
7.422
 21
7.754
  0
LINE
  8
0
 10
7.036
 11
7.039
 20
7.754
 21
7.778
  0
LINE
  8
0
 10
7.039
 11
7.439
 20
7.778
 21
8.219
  0
LINE
  8
0
 10
7.439
 11
7.593
 20
8.219
 21
8.352
  0
LINE
  8
0
 10
7.593
 11
8.118
 20
8.352
 21
8.664
  0
LINE
  8
0
 10
8.118
 11
9.075
 20
8.664
 21
9.012
  0
LINE
  8
0
 10
9.075
 11
10.482
 20
9.012
 21
9.239
  0
LINE
  8
0
 10
10.482
 11
12.315
 20
9.239
 21
9.181
  0
LINE
  8
0
 10
12.315
 11
12.537
 20
9.181
 21
8.875
  0
LINE
  8
0
 10
12.537
 11
12.026
 20
8.875
 21
7.114
  0
LINE
  8
0
 10
12.026
 11
11.375
 20
7.114
 21
5.846
  0
LINE
  8
0
 10
11.375
 11
10.749
 20
5.846
 21
5.043
  0
LINE
  8
0
 10
10.749
 11
10.29
 20
5.043
 21
4.64
  0
LINE
  8
0
 10
10.29
 11
10.115
 20
4.64
 21
4.535
  0
LINE
  8
0
 10
10.115
 11
9.572
 20
4.535
 21
4.291
  0
LINE
  8
0
 10
9.572
 11
9.549
 20
4.291
 21
4.295
  0
LINE
  8
0
 10
9.549
 11
9.18
 20
4.295
 21
4.237
  0
LINE
  8
0
 10
9.18
 11
8.848
 20
4.237
 21
4.067
  0
LINE
  8
0
 10
8.848
 11
8.584
 20
4.067
 21
3.804
  0
LINE
  8
0
 10
8.584
 11
8.414
 20
3.804
 21
3.471
  0
LINE
  8
0
 10
8.414
 11
8.356
 20
3.471
 21
3.103
  0
LINE
  8
0
 10
8.356
 11
8.414
 20
3.103
 21
2.734
  0
LINE
  8
0
 10
8.414
 11
8.584
 20
2.734
 21
2.402
  0
LINE
  8
0
 10
8.584
 11
8.848
 20
2.402
 21
2.138
  0
LINE
  8
0
 10
8.848
 11
9.18
 20
2.138
 21
1.968
  0
LINE
  8
0
 10
9.18
 11
9.549
 20
1.968
 21
1.91
  0
LINE
  8
0
 10
9.549
 11
9.917
 20
1.91
 21
1.968
  0
LINE
  8
0
 10
9.917
 11
10.25
 20
1.968
 21
2.138
  0
LINE
  8
0
 10
10.25
 11
10.267
 20
2.138
 21
2.155
  0
LINE
  8
0
 10
10.267
 11
10.849
 20
2.155
 21
2.277
  0
LINE
  8
0
 10
10.849
 11
11.052
 20
2.277
 21
2.294
  0
LINE
  8
0
 10
11.052
 11
11.66
 20
2.294
 21
2.238
  0
LINE
  8
0
 10
11.66
 11
12.639
 20
2.238
 21
1.957
  0
LINE
  8
0
 10
12.639
 11
13.911
 20
1.957
 21
1.313
  0
LINE
  8
0
 10
13.911
 11
15.359
 20
1.313
 21
0.189
  0
LINE
  8
0
 10
15.359
 11
15.359
 20
0.189
 21
-0.189
  0
LINE
  8
0
 10
15.359
 11
13.911
 20
-0.189
 21
-1.313
  0
LINE
  8
0
 10
13.911
 11
12.639
 20
-1.313
 21
-1.957
  0
LINE
  8
0
 10
12.639
 11
11.66
 20
-1.957
 21
-2.238
  0
LINE
  8
0
 10
11.66
 11
11.052
 20
-2.238
 21
-2.294
  0
LINE
  8
0
 10
11.052
 11
10.849
 20
-2.294
 21
-2.277
  0
LINE
  8
0
 10
10.849
 11
10.267
 20
-2.277
 21
-2.155
  0
LINE
  8
0
 10
10.267
 11
10.25
 20
-2.155
 21
-2.138
  0
LINE
  8
0
 10
10.25
 11
9.917
 20
-2.138
 21
-1.968
  0
LINE
  8
0
 10
9.917
 11
9.549
 20
-1.968
 21
-1.91
  0
LINE
  8
0
 10
9.549
 11
9.18
 20
-1.91
 21
-1.968
  0
LINE
  8
0
 10
9.18
 11
8.848
 20
-1.968
 21
-2.138
  0
LINE
  8
0
 10
8.848
 11
8.584
 20
-2.138
 21
-2.402
  0
LINE
  8
0
 10
8.584
 11
8.414
 20
-2.402
 21
-2.734
  0
LINE
  8
0
 10
8.414
 11
8.356
 20
-2.734
 21
-3.103
  0
LINE
  8
0
 10
8.356
 11
8.414
 20
-3.103
 21
-3.471
  0
LINE
  8
0
 10
8.414
 11
8.584
 20
-3.471
 21
-3.804
  0
LINE
  8
0
 10
8.584
 11
8.848
 20
-3.804
 21
-4.067
  0
LINE
  8
0
 10
8.848
 11
9.18
 20
-4.067
 21
-4.237
  0
LINE
  8
0
 10
9.18
 11
9.549
 20
-4.237
 21
-4.295
  0
LINE
  8
0
 10
9.549
 11
9.571
 20
-4.295
 21
-4.292
  0
LINE
  8
0
 10
9.571
 11
10.115
 20
-4.292
 21
-4.535
  0
LINE
  8
0
 10
10.115
 11
10.29
 20
-4.535
 21
-4.64
  0
LINE
  8
0
 10
10.29
 11
10.749
 20
-4.64
 21
-5.043
  0
LINE
  8
0
 10
10.749
 11
11.375
 20
-5.043
 21
-5.846
  0
LINE
  8
0
 10
11.375
 11
12.026
 20
-5.846
 21
-7.114
  0
LINE
  8
0
 10
12.026
 11
12.537
 20
-7.114
 21
-8.875
  0
LINE
  8
0
 10
12.537
 11
12.315
 20
-8.875
 21
-9.181
  0
LINE
  8
0
 10
12.315
 11
10.482
 20
-9.181
 21
-9.239
  0
LINE
  8
0
 10
10.482
 11
9.075
 20
-9.239
 21
-9.012
  0
LINE
  8
0
 10
9.075
 11
8.118
 20
-9.012
 21
-8.664
  0
LINE
  8
0
 10
8.118
 11
7.593
 20
-8.664
 21
-8.352
  0
LINE
  8
0
 10
7.593
 11
7.439
 20
-8.352
 21
-8.219
  0
LINE
  8
0
 10
7.439
 11
7.039
 20
-8.219
 21
-7.777
  0
LINE
  8
0
 10
7.039
 11
7.036
 20
-7.777
 21
-7.754
  0
LINE
  8
0
 10
7.036
 11
6.866
 20
-7.754
 21
-7.422
  0
LINE
  8
0
 10
6.866
 11
6.602
 20
-7.422
 21
-7.158
  0
LINE
  8
0
 10
6.602
 11
6.27
 20
-7.158
 21
-6.988
  0
LINE
  8
0
 10
6.27
 11
5.901
 20
-6.988
 21
-6.93
  0
LINE
  8
0
 10
5.901
 11
5.533
 20
-6.93
 21
-6.988
  0
LINE
  8
0
 10
5.533
 11
5.2
 20
-6.988
 21
-7.158
  0
LINE
  8
0
 10
5.2
 11
4.937
 20
-7.158
 21
-7.422
  0
LINE
  8
0
 10
4.937
 11
4.767
 20
-7.422
 21
-7.754
  0
LINE
  8
0
 10
4.767
 11
4.709
 20
-7.754
 21
-8.123
  0
LINE
  8
0
 10
4.709
 11
4.767
 20
-8.123
 21
-8.491
  0
LINE
  8
0
 10
4.767
 11
4.937
 20
-8.491
 21
-8.824
  0
LINE
  8
0
 10
4.937
 11
5.2
 20
-8.824
 21
-9.087
  0
LINE
  8
0
 10
5.2
 11
5.222
 20
-9.087
 21
-9.098
  0
LINE
  8
0
 10
5.222
 11
5.518
 20
-9.098
 21
-9.614
  0
LINE
  8
0
 10
5.518
 11
5.597
 20
-9.614
 21
-9.802
  0
LINE
  8
0
 10
5.597
 11
5.732
 20
-9.802
 21
-10.398
  0
LINE
  8
0
 10
5.732
 11
5.767
 20
-10.398
 21
-11.416
  0
LINE
  8
0
 10
5.767
 11
5.547
 20
-11.416
 21
-12.824
  0
LINE
  8
0
 10
5.547
 11
4.926
 20
-12.824
 21
-14.549
  0
LINE
  8
0
 10
4.926
 11
4.566
 20
-14.549
 21
-14.666
  0
LINE
  8
0
 10
4.566
 11
3.05
 20
-14.666
 21
-13.636
  0
LINE
  8
0
 10
3.05
 11
2.044
 20
-13.636
 21
-12.625
  0
LINE
  8
0
 10
2.044
 11
1.475
 20
-12.625
 21
-11.781
  0
LINE
  8
0
 10
1.475
 11
1.234
 20
-11.781
 21
-11.22
  0
LINE
  8
0
 10
1.234
 11
1.187
 20
-11.22
 21
-11.022
  0
LINE
  8
0
 10
1.187
 11
1.123
 20
-11.022
 21
-10.43
  0
LINE
  8
0
 10
1.123
 11
1.134
 20
-10.43
 21
-10.409
  0
LINE
  8
0
 10
1.134
 11
1.193
 20
-10.409
 21
-10.04
  0
LINE
  8
0
 10
1.193
 11
1.134
 20
-10.04
 21
-9.671
  0
LINE
  8
0
 10
1.134
 11
0.965
 20
-9.671
 21
-9.339
  0
LINE
  8
0
 10
0.965
 11
0.701
 20
-9.339
 21
-9.075
  0
LINE
  8
0
 10
0.701
 11
0.369
 20
-9.075
 21
-8.906
  0
LINE
  8
0
 10
0.369
 11
0
 20
-8.906
 21
-8.847
  0
LINE
  8
0
 10
0
 11
-0.369
 20
-8.847
 21
-8.906
  0
LINE
  8
0
 10
-0.369
 11
-0.701
 20
-8.906
 21
-9.075
  0
LINE
  8
0
 10
-0.701
 11
-0.965
 20
-9.075
 21
-9.339
  0
LINE
  8
0
 10
-0.965
 11
-1.134
 20
-9.339
 21
-9.671
  0
LINE
  8
0
 10
-1.134
 11
-1.193
 20
-9.671
 21
-10.04
  0
LINE
  8
0
 10
-1.193
 11
-1.134
 20
-10.04
 21
-10.409
  0
LINE
  8
0
 10
-1.134
 11
-1.123
 20
-10.409
 21
-10.43
  0
LINE
  8
0
 10
-1.123
 11
-1.187
 20
-10.43
 21
-11.022
  0
LINE
  8
0
 10
-1.187
 11
-1.234
 20
-11.022
 21
-11.22
  0
LINE
  8
0
 10
-1.234
 11
-1.475
 20
-11.22
 21
-11.781
  0
LINE
  8
0
 10
-1.475
 11
-2.044
 20
-11.781
 21
-12.625
  0
LINE
  8
0
 10
-2.044
 11
-3.05
 20
-12.625
 21
-13.636
  0
LINE
  8
0
 10
-3.05
 11
-4.566
 20
-13.636
 21
-14.666
  0
LINE
  8
0
 10
-4.566
 11
-4.926
 20
-14.666
 21
-14.549
  0
LINE
  8
0
 10
-4.926
 11
-5.547
 20
-14.549
 21
-12.824
  0
LINE
  8
0
 10
-5.547
 11
-5.767
 20
-12.824
 21
-11.416
  0
LINE
  8
0
 10
-5.767
 11
-5.732
 20
-11.416
 21
-10.398
  0
LINE
  8
0
 10
-5.732
 11
-5.597
 20
-10.398
 21
-9.802
  0
LINE
  8
0
 10
-5.597
 11
-5.518
 20
-9.802
 21
-9.614
  0
LINE
  8
0
 10
-5.518
 11
-5.222
 20
-9.614
 21
-9.098
  0
LINE
  8
0
 10
-5.222
 11
-5.2
 20
-9.098
 21
-9.087
  0
LINE
  8
0
 10
-5.2
 11
-4.937
 20
-9.087
 21
-8.824
  0
LINE
  8
0
 10
-4.937
 11
-4.767
 20
-8.824
 21
-8.491
  0
LINE
  8
0
 10
-4.767
 11
-4.709
 20
-8.491
 21
-8.123
  0
LINE
  8
0
 10
-4.709
 11
-4.767
 20
-8.123
 21
-7.754
  0
LINE
  8
0
 10
-4.767
 11
-4.937
 20
-7.754
 21
-7.422
  0
LINE
  8
0
 10
-4.937
 11
-5.2
 20
-7.422
 21
-7.158
  0
LINE
  8
0
 10
-5.2
 11
-5.533
 20
-7.158
 21
-6.988
  0
LINE
  8
0
 10
-5.533
 11
-5.901
 20
-6.988
 21
-6.93
  0
LINE
  8
0
 10
-5.901
 11
-6.27
 20
-6.93
 21
-6.988
  0
LINE
  8
0
 10
-6.27
 11
-6.602
 20
-6.988
 21
-7.158
  0
LINE
  8
0
 10
-6.602
 11
-6.866
 20
-7.158
 21
-7.422
  0
LINE
  8
0
 10
-6.866
 11
-7.036
 20
-7.422
 21
-7.754
  0
LINE
  8
0
 10
-7.036
 11
-7.039
 20
-7.754
 21
-7.778
  0
LINE
  8
0
 10
-7.039
 11
-7.439
 20
-7.778
 21
-8.219
  0
LINE
  8
0
 10
-7.439
 11
-7.593
 20
-8.219
 21
-8.352
  0
LINE
  8
0
 10
-7.593
 11
-8.118
 20
-8.352
 21
-8.664
  0
LINE
  8
0
 10
-8.118
 11
-9.075
 20
-8.664
 21
-9.012
  0
LINE
  8
0
 10
-9.075
 11
-10.482
 20
-9.012
 21
-9.239
  0
LINE
  8
0
 10
-10.482
 11
-12.315
 20
-9.239
 21
-9.181
  0
LINE
  8
0
 10
-12.315
 11
-12.537
 20
-9.181
 21
-8.875
  0
LINE
  8
0
 10
-12.537
 11
-12.026
 20
-8.875
 21
-7.114
  0
LINE
  8
0
 10
-12.026
 11
-11.375
 20
-7.114
 21
-5.846
  0
LINE
  8
0
 10
-11.375
 11
-10.749
 20
-5.846
 21
-5.043
  0
LINE
  8
0
 10
-10.749
 11
-10.29
 20
-5.043
 21
-4.64
  0
LINE
  8
0
 10
-10.29
 11
-10.115
 20
-4.64
 21
-4.535
  0
LINE
  8
0
 10
-10.115
 11
-9.572
 20
-4.535
 21
-4.291
  0
LINE
  8
0
 10
-9.572
 11
-9.549
 20
-4.291
 21
-4.295
  0
LINE
  8
0
 10
-9.549
 11
-9.18
 20
-4.295
 21
-4.237
  0
LINE
  8
0
 10
-9.18
 11
-8.848
 20
-4.237
 21
-4.067
  0
LINE
  8
0
 10
-8.848
 11
-8.584
 20
-4.067
 21
-3.804
  0
LINE
  8
0
 10
-8.584
 11
-8.414
 20
-3.804
 21
-3.471
  0
LINE
  8
0
 10
-8.414
 11
-8.356
 20
-3.471
 21
-3.103
  0
LINE
  8
0
 10
-8.356
 11
-8.414
 20
-3.103
 21
-2.734
  0
LINE
  8
0
 10
-8.414
 11
-8.584
 20
-2.734
 21
-2.402
  0
LINE
  8
0
 10
-8.584
 11
-8.848
 20
-2.402
 21
-2.138
  0
LINE
  8
0
 10
-8.848
 11
-9.18
 20
-2.138
 21
-1.968
  0
LINE
  8
0
 10
-9.18
 11
-9.549
 20
-1.968
 21
-1.91
  0
LINE
  8
0
 10
-9.549
 11
-9.917
 20
-1.91
 21
-1.968
  0
LINE
  8
0
 10
-9.917
 11
-10.25
 20
-1.968
 21
-2.138
  0
LINE
  8
0
 10
-10.25
 11
-10.267
 20
-2.138
 21
-2.155
  0
LINE
  8
0
 10
-10.267
 11
-10.849
 20
-2.155
 21
-2.277
  0
LINE
  8
0
 10
-10.849
 11
-11.052
 20
-2.277
 21
-2.294
  0
LINE
  8
0
 10
-11.052
 11
-11.66
 20
-2.294
 21
-2.238
  0
LINE
  8
0
 10
-11.66
 11
-12.639
 20
-2.238
 21
-1.957
  0
LINE
  8
0
 10
-12.639
 11
-13.911
 20
-1.957
 21
-1.313
  0
LINE
  8
0
 10
-13.911
 11
-15.359
 20
-1.313
 21
-0.189
  0
ENDSEC
  0
SECTION
  2
OBJECTS
  0
DICTIONARY
  0
ENDSEC
  0
EOF
