  0
SECTION
  2
BLOCKS
  0
ENDSEC
  0
SECTION
  2
ENTITIES
  0
LINE
  8
0
 10
-15.359
 11
-15.359
 20
63.811
 21
64.189
  0
LINE
  8
0
 10
-15.359
 11
-13.911
 20
64.189
 21
65.313
  0
LINE
  8
0
 10
-13.911
 11
-12.639
 20
65.313
 21
65.957
  0
LINE
  8
0
 10
-12.639
 11
-11.66
 20
65.957
 21
66.238
  0
LINE
  8
0
 10
-11.66
 11
-11.052
 20
66.238
 21
66.294
  0
LINE
  8
0
 10
-11.052
 11
-10.849
 20
66.294
 21
66.277
  0
LINE
  8
0
 10
-10.849
 11
-9.766
 20
66.277
 21
66.05
  0
LINE
  8
0
 10
-9.766
 11
-9.097
 20
66.05
 21
68.079
  0
LINE
  8
0
 10
-9.097
 11
-10.115
 20
68.079
 21
68.535
  0
LINE
  8
0
 10
-10.115
 11
-10.29
 20
68.535
 21
68.64
  0
LINE
  8
0
 10
-10.29
 11
-10.749
 20
68.64
 21
69.043
  0
LINE
  8
0
 10
-10.749
 11
-11.375
 20
69.043
 21
69.846
  0
LINE
  8
0
 10
-11.375
 11
-12.026
 20
69.846
 21
71.114
  0
LINE
  8
0
 10
-12.026
 11
-12.537
 20
71.114
 21
72.875
  0
LINE
  8
0
 10
-12.537
 11
-12.315
 20
72.875
 21
73.181
  0
LINE
  8
0
 10
-12.315
 11
-10.482
 20
73.181
 21
73.239
  0
LINE
  8
0
 10
-10.482
 11
-9.075
 20
73.239
 21
73.012
  0
LINE
  8
0
 10
-9.075
 11
-8.118
 20
73.012
 21
72.664
  0
LINE
  8
0
 10
-8.118
 11
-7.593
 20
72.664
 21
72.352
  0
LINE
  8
0
 10
-7.593
 11
-7.439
 20
72.352
 21
72.219
  0
LINE
  8
0
 10
-7.439
 11
-6.696
 20
72.219
 21
71.398
  0
LINE
  8
0
 10
-6.696
 11
-4.963
 20
71.398
 21
72.647
  0
LINE
  8
0
 10
-4.963
 11
-5.518
 20
72.647
 21
73.614
  0
LINE
  8
0
 10
-5.518
 11
-5.597
 20
73.614
 21
73.802
  0
LINE
  8
0
 10
-5.597
 11
-5.732
 20
73.802
 21
74.398
  0
LINE
  8
0
 10
-5.732
 11
-5.767
 20
74.398
 21
75.416
  0
LINE
  8
0
 10
-5.767
 11
-5.547
 20
75.416
 21
76.824
  0
LINE
  8
0
 10
-5.547
 11
-4.926
 20
76.824
 21
78.549
  0
LINE
  8
0
 10
-4.926
 11
-4.566
 20
78.549
 21
78.666
  0
LINE
  8
0
 10
-4.566
 11
-3.05
 20
78.666
 21
77.636
  0
LINE
  8
0
 10
-3.05
 11
-2.044
 20
77.636
 21
76.625
  0
LINE
  8
0
 10
-2.044
 11
-1.475
 20
76.625
 21
75.781
  0
LINE
  8
0
 10
-1.475
 11
-1.234
 20
75.781
 21
75.22
  0
LINE
  8
0
 10
-1.234
 11
-1.187
 20
75.22
 21
75.022
  0
LINE
  8
0
 10
-1.187
 11
-1.068
 20
75.022
 21
73.92
  0
LINE
  8
0
 10
-1.068
 11
1.068
 20
73.92
 21
73.913
  0
LINE
  8
0
 10
1.068
 11
1.187
 20
73.913
 21
75.022
  0
LINE
  8
0
 10
1.187
 11
1.234
 20
75.022
 21
75.22
  0
LINE
  8
0
 10
1.234
 11
1.475
 20
75.22
 21
75.781
  0
LINE
  8
0
 10
1.475
 11
2.044
 20
75.781
 21
76.625
  0
LINE
  8
0
 10
2.044
 11
3.05
 20
76.625
 21
77.636
  0
LINE
  8
0
 10
3.05
 11
4.566
 20
77.636
 21
78.666
  0
LINE
  8
0
 10
4.566
 11
4.926
 20
78.666
 21
78.549
  0
LINE
  8
0
 10
4.926
 11
5.547
 20
78.549
 21
76.824
  0
LINE
  8
0
 10
5.547
 11
5.767
 20
76.824
 21
75.416
  0
LINE
  8
0
 10
5.767
 11
5.732
 20
75.416
 21
74.398
  0
LINE
  8
0
 10
5.732
 11
5.597
 20
74.398
 21
73.802
  0
LINE
  8
0
 10
5.597
 11
5.518
 20
73.802
 21
73.614
  0
LINE
  8
0
 10
5.518
 11
4.967
 20
73.614
 21
72.654
  0
LINE
  8
0
 10
4.967
 11
6.69
 20
72.654
 21
71.392
  0
LINE
  8
0
 10
6.69
 11
7.439
 20
71.392
 21
72.219
  0
LINE
  8
0
 10
7.439
 11
7.593
 20
72.219
 21
72.352
  0
LINE
  8
0
 10
7.593
 11
8.118
 20
72.352
 21
72.664
  0
LINE
  8
0
 10
8.118
 11
9.075
 20
72.664
 21
73.012
  0
LINE
  8
0
 10
9.075
 11
10.482
 20
73.012
 21
73.239
  0
LINE
  8
0
 10
10.482
 11
12.315
 20
73.239
 21
73.181
  0
LINE
  8
0
 10
12.315
 11
12.537
 20
73.181
 21
72.875
  0
LINE
  8
0
 10
12.537
 11
12.026
 20
72.875
 21
71.114
  0
LINE
  8
0
 10
12.026
 11
11.375
 20
71.114
 21
69.846
  0
LINE
  8
0
 10
11.375
 11
10.749
 20
69.846
 21
69.043
  0
LINE
  8
0
 10
10.749
 11
10.29
 20
69.043
 21
68.64
  0
LINE
  8
0
 10
10.29
 11
10.115
 20
68.64
 21
68.535
  0
LINE
  8
0
 10
10.115
 11
9.105
 20
68.535
 21
68.082
  0
LINE
  8
0
 10
9.105
 11
9.757
 20
68.082
 21
66.048
  0
LINE
  8
0
 10
9.757
 11
10.849
 20
66.048
 21
66.277
  0
LINE
  8
0
 10
10.849
 11
11.052
 20
66.277
 21
66.294
  0
LINE
  8
0
 10
11.052
 11
11.66
 20
66.294
 21
66.238
  0
LINE
  8
0
 10
11.66
 11
12.639
 20
66.238
 21
65.957
  0
LINE
  8
0
 10
12.639
 11
13.911
 20
65.957
 21
65.313
  0
LINE
  8
0
 10
13.911
 11
15.359
 20
65.313
 21
64.189
  0
LINE
  8
0
 10
15.359
 11
15.359
 20
64.189
 21
63.811
  0
LINE
  8
0
 10
15.359
 11
13.911
 20
63.811
 21
62.687
  0
LINE
  8
0
 10
13.911
 11
12.639
 20
62.687
 21
62.043
  0
LINE
  8
0
 10
12.639
 11
11.66
 20
62.043
 21
61.762
  0
LINE
  8
0
 10
11.66
 11
11.052
 20
61.762
 21
61.706
  0
LINE
  8
0
 10
11.052
 11
10.849
 20
61.706
 21
61.723
  0
LINE
  8
0
 10
10.849
 11
9.766
 20
61.723
 21
61.95
  0
LINE
  8
0
 10
9.766
 11
9.097
 20
61.95
 21
59.921
  0
LINE
  8
0
 10
9.097
 11
10.115
 20
59.921
 21
59.465
  0
LINE
  8
0
 10
10.115
 11
10.29
 20
59.465
 21
59.36
  0
LINE
  8
0
 10
10.29
 11
10.749
 20
59.36
 21
58.957
  0
LINE
  8
0
 10
10.749
 11
11.375
 20
58.957
 21
58.154
  0
LINE
  8
0
 10
11.375
 11
12.026
 20
58.154
 21
56.886
  0
LINE
  8
0
 10
12.026
 11
12.537
 20
56.886
 21
55.125
  0
LINE
  8
0
 10
12.537
 11
12.315
 20
55.125
 21
54.819
  0
LINE
  8
0
 10
12.315
 11
10.482
 20
54.819
 21
54.761
  0
LINE
  8
0
 10
10.482
 11
9.075
 20
54.761
 21
54.988
  0
LINE
  8
0
 10
9.075
 11
8.118
 20
54.988
 21
55.336
  0
LINE
  8
0
 10
8.118
 11
7.593
 20
55.336
 21
55.648
  0
LINE
  8
0
 10
7.593
 11
7.439
 20
55.648
 21
55.781
  0
LINE
  8
0
 10
7.439
 11
6.696
 20
55.781
 21
56.602
  0
LINE
  8
0
 10
6.696
 11
4.963
 20
56.602
 21
55.353
  0
LINE
  8
0
 10
4.963
 11
5.518
 20
55.353
 21
54.386
  0
LINE
  8
0
 10
5.518
 11
5.597
 20
54.386
 21
54.198
  0
LINE
  8
0
 10
5.597
 11
5.732
 20
54.198
 21
53.602
  0
LINE
  8
0
 10
5.732
 11
5.767
 20
53.602
 21
52.584
  0
LINE
  8
0
 10
5.767
 11
5.547
 20
52.584
 21
51.176
  0
LINE
  8
0
 10
5.547
 11
4.926
 20
51.176
 21
49.451
  0
LINE
  8
0
 10
4.926
 11
4.566
 20
49.451
 21
49.334
  0
LINE
  8
0
 10
4.566
 11
3.05
 20
49.334
 21
50.364
  0
LINE
  8
0
 10
3.05
 11
2.044
 20
50.364
 21
51.375
  0
LINE
  8
0
 10
2.044
 11
1.475
 20
51.375
 21
52.219
  0
LINE
  8
0
 10
1.475
 11
1.234
 20
52.219
 21
52.78
  0
LINE
  8
0
 10
1.234
 11
1.187
 20
52.78
 21
52.978
  0
LINE
  8
0
 10
1.187
 11
1.068
 20
52.978
 21
54.08
  0
LINE
  8
0
 10
1.068
 11
-1.068
 20
54.08
 21
54.087
  0
LINE
  8
0
 10
-1.068
 11
-1.187
 20
54.087
 21
52.978
  0
LINE
  8
0
 10
-1.187
 11
-1.234
 20
52.978
 21
52.78
  0
LINE
  8
0
 10
-1.234
 11
-1.475
 20
52.78
 21
52.219
  0
LINE
  8
0
 10
-1.475
 11
-2.044
 20
52.219
 21
51.375
  0
LINE
  8
0
 10
-2.044
 11
-3.05
 20
51.375
 21
50.364
  0
LINE
  8
0
 10
-3.05
 11
-4.566
 20
50.364
 21
49.334
  0
LINE
  8
0
 10
-4.566
 11
-4.926
 20
49.334
 21
49.451
  0
LINE
  8
0
 10
-4.926
 11
-5.547
 20
49.451
 21
51.176
  0
LINE
  8
0
 10
-5.547
 11
-5.767
 20
51.176
 21
52.584
  0
LINE
  8
0
 10
-5.767
 11
-5.732
 20
52.584
 21
53.602
  0
LINE
  8
0
 10
-5.732
 11
-5.597
 20
53.602
 21
54.198
  0
LINE
  8
0
 10
-5.597
 11
-5.518
 20
54.198
 21
54.386
  0
LINE
  8
0
 10
-5.518
 11
-4.967
 20
54.386
 21
55.346
  0
LINE
  8
0
 10
-4.967
 11
-6.69
 20
55.346
 21
56.608
  0
LINE
  8
0
 10
-6.69
 11
-7.439
 20
56.608
 21
55.781
  0
LINE
  8
0
 10
-7.439
 11
-7.593
 20
55.781
 21
55.648
  0
LINE
  8
0
 10
-7.593
 11
-8.118
 20
55.648
 21
55.336
  0
LINE
  8
0
 10
-8.118
 11
-9.075
 20
55.336
 21
54.988
  0
LINE
  8
0
 10
-9.075
 11
-10.482
 20
54.988
 21
54.761
  0
LINE
  8
0
 10
-10.482
 11
-12.315
 20
54.761
 21
54.819
  0
LINE
  8
0
 10
-12.315
 11
-12.537
 20
54.819
 21
55.125
  0
LINE
  8
0
 10
-12.537
 11
-12.026
 20
55.125
 21
56.886
  0
LINE
  8
0
 10
-12.026
 11
-11.375
 20
56.886
 21
58.154
  0
LINE
  8
0
 10
-11.375
 11
-10.749
 20
58.154
 21
58.957
  0
LINE
  8
0
 10
-10.749
 11
-10.29
 20
58.957
 21
59.36
  0
LINE
  8
0
 10
-10.29
 11
-10.115
 20
59.36
 21
59.465
  0
LINE
  8
0
 10
-10.115
 11
-9.105
 20
59.465
 21
59.918
  0
LINE
  8
0
 10
-9.105
 11
-9.757
 20
59.918
 21
61.952
  0
LINE
  8
0
 10
-9.757
 11
-10.849
 20
61.952
 21
61.723
  0
LINE
  8
0
 10
-10.849
 11
-11.052
 20
61.723
 21
61.706
  0
LINE
  8
0
 10
-11.052
 11
-11.66
 20
61.706
 21
61.762
  0
LINE
  8
0
 10
-11.66
 11
-12.639
 20
61.762
 21
62.043
  0
LINE
  8
0
 10
-12.639
 11
-13.911
 20
62.043
 21
62.687
  0
LINE
  8
0
 10
-13.911
 11
-15.359
 20
62.687
 21
63.811
  0
LINE
  8
0
 10
-3.359
 11
-3.03
 20
64.516
 21
65.497
  0
LINE
  8
0
 10
-3.03
 11
-2.862
 20
65.497
 21
65.721
  0
LINE
  8
0
 10
-2.862
 11
2.173
 20
65.721
 21
66.495
  0
LINE
  8
0
 10
2.173
 11
2.405
 20
66.495
 21
66.332
  0
LINE
  8
0
 10
2.405
 11
3.03
 20
66.332
 21
65.498
  0
LINE
  8
0
 10
3.03
 11
3.358
 20
65.498
 21
64.516
  0
LINE
  8
0
 10
3.358
 11
3.359
 20
64.516
 21
63.484
  0
LINE
  8
0
 10
3.359
 11
3.03
 20
63.484
 21
62.503
  0
LINE
  8
0
 10
3.03
 11
2.612
 20
62.503
 21
61.946
  0
LINE
  8
0
 10
2.612
 11
-1.83
 20
61.946
 21
61.264
  0
LINE
  8
0
 10
-1.83
 11
-2.405
 20
61.264
 21
61.668
  0
LINE
  8
0
 10
-2.405
 11
-3.03
 20
61.668
 21
62.502
  0
LINE
  8
0
 10
-3.03
 11
-3.358
 20
62.502
 21
63.484
  0
LINE
  8
0
 10
-3.358
 11
-3.359
 20
63.484
 21
64.516
  0
ENDSEC
  0
SECTION
  2
OBJECTS
  0
DICTIONARY
  0
ENDSEC
  0
EOF
